<?xml version="1.0" standalone="no"?>
<svg viewBox="0 0 200 200" xmlns="http://www.w3.org/2000/svg">
  <path fill="#F2DF3B" d="M28.8,-32.8C42,-29.9,60.9,-27.9,71.8,-17.8C82.7,-7.7,85.6,10.5,77.6,22.1C69.5,33.7,50.6,38.6,35.8,47.4C21,56.3,10.5,69.2,-2.4,72.5C-15.3,75.9,-30.7,69.6,-44.5,60.4C-58.3,51.2,-70.6,39.1,-73.3,25.2C-75.9,11.3,-68.8,-4.4,-62.6,-19.4C-56.4,-34.3,-51,-48.5,-40.7,-52.5C-30.4,-56.4,-15.2,-49.9,-3.7,-44.8C7.7,-39.6,15.5,-35.8,28.8,-32.8Z" transform="translate(100 100)" />
</svg>
