<?xml version="1.0" standalone="no"?><svg xmlns="http://www.w3.org/2000/svg" viewBox="0 0 1440 320"><path fill="#3ab4f3" fill-opacity="1" d="M0,128L26.7,154.7C53.3,181,107,235,160,224C213.3,213,267,139,320,122.7C373.3,107,427,149,480,154.7C533.3,160,587,128,640,133.3C693.3,139,747,181,800,202.7C853.3,224,907,224,960,202.7C1013.3,181,1067,139,1120,138.7C1173.3,139,1227,181,1280,176C1333.3,171,1387,117,1413,90.7L1440,64L1440,320L1413.3,320C1386.7,320,1333,320,1280,320C1226.7,320,1173,320,1120,320C1066.7,320,1013,320,960,320C906.7,320,853,320,800,320C746.7,320,693,320,640,320C586.7,320,533,320,480,320C426.7,320,373,320,320,320C266.7,320,213,320,160,320C106.7,320,53,320,27,320L0,320Z"></path></svg>