<?xml version="1.0" standalone="no"?><svg xmlns="http://www.w3.org/2000/svg" viewBox="0 0 1440 320"><path fill="#f2df3b" fill-opacity="1" d="M0,128L20,128C40,128,80,128,120,138.7C160,149,200,171,240,186.7C280,203,320,213,360,229.3C400,245,440,267,480,250.7C520,235,560,181,600,154.7C640,128,680,128,720,144C760,160,800,192,840,218.7C880,245,920,267,960,234.7C1000,203,1040,117,1080,106.7C1120,96,1160,160,1200,197.3C1240,235,1280,245,1320,256C1360,267,1400,277,1420,282.7L1440,288L1440,320L1420,320C1400,320,1360,320,1320,320C1280,320,1240,320,1200,320C1160,320,1120,320,1080,320C1040,320,1000,320,960,320C920,320,880,320,840,320C800,320,760,320,720,320C680,320,640,320,600,320C560,320,520,320,480,320C440,320,400,320,360,320C320,320,280,320,240,320C200,320,160,320,120,320C80,320,40,320,20,320L0,320Z"></path></svg>